HIERARCHY
ROOT Hips
{
    OFFSET   0.000000   0.000000   0.000000
    CHANNELS 6 Xposition Yposition Zposition Zrotation Xrotation Yrotation
    JOINT Chest
    {
        OFFSET   0.000000   8.007230   0.000000
        CHANNELS 3 Zrotation Xrotation Yrotation
        JOINT Chest2
        {
            OFFSET   0.000000  22.077100   0.000000
            CHANNELS 3 Zrotation Xrotation Yrotation
            JOINT Neck
            {
                OFFSET   0.000000  23.255100   0.000000
                CHANNELS 3 Zrotation Xrotation Yrotation
                JOINT Head
                {
                    OFFSET   0.000000  14.370100   1.956600
                    CHANNELS 3 Zrotation Xrotation Yrotation
                    End Site
                    {
                        OFFSET   0.000000  19.566000   0.000000
                    }
                }
            }
            JOINT LeftCollar
            {
                OFFSET   3.911900  19.017000  -0.467063
                CHANNELS 3 Zrotation Xrotation Yrotation
                JOINT LeftShoulder
                {
                    OFFSET  10.383700   0.000000   0.000000
                    CHANNELS 3 Zrotation Xrotation Yrotation
                    JOINT LeftElbow
                    {
                        OFFSET  26.662100   0.001193   0.000980
                        CHANNELS 3 Zrotation Xrotation Yrotation
                        JOINT LeftWrist
                        {
                            OFFSET  28.869000  -0.000059  -0.000082
                            CHANNELS 3 Zrotation Xrotation Yrotation
                            JOINT LeftFinger0
                            {
                                OFFSET   2.044650  -2.323450   3.252850
                                CHANNELS 3 Zrotation Xrotation Yrotation
                                JOINT LeftFinger01
                                {
                                    OFFSET   3.088130   0.000000   0.000000
                                    CHANNELS 3 Zrotation Xrotation Yrotation
                                    JOINT LeftFinger02
                                    {
                                        OFFSET   2.639460   0.000000   0.000000
                                        CHANNELS 3 Zrotation Xrotation Yrotation
                                        End Site
                                        {
                                            OFFSET   2.582190   0.000000   0.000000
                                        }
                                    }
                                }
                            }
                            JOINT LeftFinger1
                            {
                                OFFSET   8.364480   0.000000   3.252850
                                CHANNELS 3 Zrotation Xrotation Yrotation
                                JOINT LeftFinger11
                                {
                                    OFFSET   4.646930   0.000000   0.000000
                                    CHANNELS 3 Zrotation Xrotation Yrotation
                                    JOINT LeftFinger12
                                    {
                                        OFFSET   2.323470   0.000000   0.000000
                                        CHANNELS 3 Zrotation Xrotation Yrotation
                                        End Site
                                        {
                                            OFFSET   2.273050   0.000000   0.000000
                                        }
                                    }
                                }
                            }
                            JOINT LeftFinger2
                            {
                                OFFSET   8.364490   0.000016   1.078090
                                CHANNELS 3 Zrotation Xrotation Yrotation
                                JOINT LeftFinger21
                                {
                                    OFFSET   5.111610   0.000000   0.000000
                                    CHANNELS 3 Zrotation Xrotation Yrotation
                                    JOINT LeftFinger22
                                    {
                                        OFFSET   2.788150   0.000016   0.000000
                                        CHANNELS 3 Zrotation Xrotation Yrotation
                                        End Site
                                        {
                                            OFFSET   2.727660   0.000000   0.000000
                                        }
                                    }
                                }
                            }
                            JOINT LeftFinger3
                            {
                                OFFSET   7.899780   0.000015  -1.078090
                                CHANNELS 3 Zrotation Xrotation Yrotation
                                JOINT LeftFinger31
                                {
                                    OFFSET   4.646930   0.000000   0.000000
                                    CHANNELS 3 Zrotation Xrotation Yrotation
                                    JOINT LeftFinger32
                                    {
                                        OFFSET   2.323470   0.000000   0.000000
                                        CHANNELS 3 Zrotation Xrotation Yrotation
                                        End Site
                                        {
                                            OFFSET   2.273050   0.000000   0.000000
                                        }
                                    }
                                }
                            }
                            JOINT LeftFinger4
                            {
                                OFFSET   7.435090   0.000000  -3.252850
                                CHANNELS 3 Zrotation Xrotation Yrotation
                                JOINT LeftFinger41
                                {
                                    OFFSET   3.717550   0.000000   0.000000
                                    CHANNELS 3 Zrotation Xrotation Yrotation
                                    JOINT LeftFinger42
                                    {
                                        OFFSET   1.858770   0.000000   0.000000
                                        CHANNELS 3 Zrotation Xrotation Yrotation
                                        End Site
                                        {
                                            OFFSET   1.818440   0.000000   0.000000
                                        }
                                    }
                                }
                            }
                        }
                    }
                }
            }
            JOINT RightCollar
            {
                OFFSET  -3.911910  19.017000  -0.467062
                CHANNELS 3 Zrotation Xrotation Yrotation
                JOINT RightShoulder
                {
                    OFFSET -10.383700   0.000014   0.000000
                    CHANNELS 3 Zrotation Xrotation Yrotation
                    JOINT RightElbow
                    {
                        OFFSET -26.662100   0.001225   0.001091
                        CHANNELS 3 Zrotation Xrotation Yrotation
                        JOINT RightWrist
                        {
                            OFFSET -28.869000  -0.000020  -0.000085
                            CHANNELS 3 Zrotation Xrotation Yrotation
                            JOINT RightFinger0
                            {
                                OFFSET  -2.044650  -2.323490   3.252850
                                CHANNELS 3 Zrotation Xrotation Yrotation
                                JOINT RightFinger01
                                {
                                    OFFSET  -3.088130   0.000000   0.000000
                                    CHANNELS 3 Zrotation Xrotation Yrotation
                                    JOINT RightFinger02
                                    {
                                        OFFSET  -2.639460   0.000000   0.000000
                                        CHANNELS 3 Zrotation Xrotation Yrotation
                                        End Site
                                        {
                                            OFFSET  -2.582190   0.000000   0.000000
                                        }
                                    }
                                }
                            }
                            JOINT RightFinger1
                            {
                                OFFSET  -8.364480   0.000000   3.252850
                                CHANNELS 3 Zrotation Xrotation Yrotation
                                JOINT RightFinger11
                                {
                                    OFFSET  -4.646930   0.000000   0.000000
                                    CHANNELS 3 Zrotation Xrotation Yrotation
                                    JOINT RightFinger12
                                    {
                                        OFFSET  -2.323470   0.000000   0.000000
                                        CHANNELS 3 Zrotation Xrotation Yrotation
                                        End Site
                                        {
                                            OFFSET  -2.273050   0.000000   0.000000
                                        }
                                    }
                                }
                            }
                            JOINT RightFinger2
                            {
                                OFFSET  -8.364480   0.000000   1.078090
                                CHANNELS 3 Zrotation Xrotation Yrotation
                                JOINT RightFinger21
                                {
                                    OFFSET  -5.111620   0.000000   0.000000
                                    CHANNELS 3 Zrotation Xrotation Yrotation
                                    JOINT RightFinger22
                                    {
                                        OFFSET  -2.788160   0.000000   0.000000
                                        CHANNELS 3 Zrotation Xrotation Yrotation
                                        End Site
                                        {
                                            OFFSET  -2.727660   0.000000   0.000000
                                        }
                                    }
                                }
                            }
                            JOINT RightFinger3
                            {
                                OFFSET  -7.899780   0.000000  -1.078090
                                CHANNELS 3 Zrotation Xrotation Yrotation
                                JOINT RightFinger31
                                {
                                    OFFSET  -4.646930   0.000000   0.000000
                                    CHANNELS 3 Zrotation Xrotation Yrotation
                                    JOINT RightFinger32
                                    {
                                        OFFSET  -2.323470   0.000000   0.000000
                                        CHANNELS 3 Zrotation Xrotation Yrotation
                                        End Site
                                        {
                                            OFFSET  -2.273050   0.000000   0.000000
                                        }
                                    }
                                }
                            }
                            JOINT RightFinger4
                            {
                                OFFSET  -7.435090   0.000000  -3.252850
                                CHANNELS 3 Zrotation Xrotation Yrotation
                                JOINT RightFinger41
                                {
                                    OFFSET  -3.717550   0.000000   0.000000
                                    CHANNELS 3 Zrotation Xrotation Yrotation
                                    JOINT RightFinger42
                                    {
                                        OFFSET  -1.858760   0.000000   0.000000
                                        CHANNELS 3 Zrotation Xrotation Yrotation
                                        End Site
                                        {
                                            OFFSET  -1.818440   0.000000   0.000000
                                        }
                                    }
                                }
                            }
                        }
                    }
                }
            }
        }
    }
    JOINT LeftHip
    {
        OFFSET   9.783030   0.000000   0.000000
        CHANNELS 3 Zrotation Xrotation Yrotation
        JOINT LeftKnee
        {
            OFFSET   0.000063 -41.789100   0.000608
            CHANNELS 3 Zrotation Xrotation Yrotation
            JOINT LeftAnkle
            {
                OFFSET   0.000048 -41.133200  -0.000184
                CHANNELS 3 Zrotation Xrotation Yrotation
                JOINT LeftToe
                {
                    OFFSET   0.000000  -6.358960  14.674500
                    CHANNELS 3 Zrotation Xrotation Yrotation
                    End Site
                    {
                        OFFSET   0.000000   0.000000   3.913200
                    }
                }
            }
        }
    }
    JOINT RightHip
    {
        OFFSET  -9.783030   0.000000   0.000000
        CHANNELS 3 Zrotation Xrotation Yrotation
        JOINT RightKnee
        {
            OFFSET   0.000071 -41.789100   0.001239
            CHANNELS 3 Zrotation Xrotation Yrotation
            JOINT RightAnkle
            {
                OFFSET   0.000037 -41.133200  -0.000166
                CHANNELS 3 Zrotation Xrotation Yrotation
                JOINT RightToe
                {
                    OFFSET   0.000000  -6.358960  14.674500
                    CHANNELS 3 Zrotation Xrotation Yrotation
                    End Site
                    {
                        OFFSET   0.000000   0.000000   3.913200
                    }
                }
            }
        }
    }
}
MOTION
Frames: 4
Frame Time:   0.016667
 -8.515030  88.766800   3.374520  -6.936980 -16.731400 -10.915700   1.730090   9.781380  -0.887281   3.698960  19.529400  -2.126520   0.554637   1.244570  -0.011742   0.912117   2.523980  34.779400  -5.424840  -3.380400   2.558190 -75.644100  -4.323400  -8.934870   6.186530 -33.996800 -39.283300  87.061500 -84.910200  73.237900  39.119000  17.274900 -54.564800 -17.028900  -0.002774  -0.000298  -3.514460   0.002332  -0.004615 -19.043200   0.430929  -1.248150 -15.584600   0.000800  -0.008062 -10.909200   0.006685  -0.002589 -19.991400  -3.782930  10.267700 -20.331800   0.001901  -0.008006 -13.541000   0.001171   0.005426 -17.922000  -3.412250  10.397100 -18.233500   0.002458  -0.002093 -12.144200   0.006316  -0.004816 -21.765000  -4.105740  10.145700 -33.195500   0.003284  -0.002667 -22.108200   0.011887   0.002092   8.675560  -1.160160   8.942830  69.849100 -13.695900  10.206700 -10.935800 -33.363300  28.152400  10.082900 -81.150500  20.952100 -43.567200  25.794400  60.172000  -0.773662  -0.003825   0.000000  -5.386830  -0.001197   0.005673  14.340700   2.238610   8.689550  11.872300   0.000485   0.003035   8.310620   0.005093  -0.004287  18.815200  -0.445115  -1.306100  18.820300   0.002235  -0.001128  12.534300   0.001549  -0.002673  19.733100  -2.948920  -8.158280  19.944400   0.003503   0.000825  13.283000   0.001978  -0.002974  28.038400  -4.101200  -7.646670  42.470700   0.004560  -0.002644  28.285500   0.003165   0.000000   7.679480  19.367100   2.779350   3.069060   8.648480   9.305000  -6.962040  -8.673230   2.695760   0.000000   0.000000   0.000000   9.600690  20.858300  -6.867650   1.228610   1.337600  -5.693820  -3.169280  -5.529070   8.700180   0.000000   0.000000   0.000000
 -8.538680  88.762400   3.369980  -6.887380 -16.738100 -10.790300   1.698990   9.763010  -0.857921   3.629450  19.494300  -2.060070   0.536778   1.240610  -0.011211   0.882991   2.515990  33.604700  -5.453820  -3.369020   2.550150 -75.595400  -4.462630  -8.845880   6.178970 -33.939500 -39.287900  87.144600 -84.908800  73.324300  39.106400  17.291800 -54.608700 -17.008800  -0.002802  -0.000309  -3.504400   0.002334  -0.004670 -19.031800   0.430707  -1.248250 -15.575300   0.000795  -0.008132 -10.902700   0.006719  -0.002631 -20.010400  -3.783620  10.262700 -20.350500   0.001891  -0.008166 -13.553500   0.001152   0.005416 -17.932500  -3.412460  10.392900 -18.243800   0.002435  -0.002104 -12.150400   0.006533  -0.004813 -21.773600  -4.106410  10.141500 -33.208400   0.003291  -0.002717 -22.116800   0.011942   0.002063   8.693870  -1.144960   8.928820  69.882100 -13.723300  10.107800 -10.957100 -33.517200  28.112900  10.669700 -81.118100  21.497700 -43.591900  25.794700  60.140300  -0.820028  -0.003847   0.000000  -5.410020  -0.001225   0.005758  14.359900   2.246440   8.704930  11.888900   0.000440   0.003067   8.322240   0.005133  -0.004287  18.853800  -0.433952  -1.270680  18.858600   0.002216  -0.001083  12.559800   0.001527  -0.002673  19.737400  -2.940400  -8.136580  19.946600   0.003487   0.000890  13.284400   0.001985  -0.002980  28.042800  -4.089990  -7.626430  42.473200   0.004581  -0.002688  28.287200   0.003179   0.000000   7.687480  19.285600   2.771450   3.088700   8.741420   9.219890  -6.985690  -8.679680   2.665070  -0.000000   0.000000  -0.000000   9.602360  20.859500  -6.859880   1.243310   1.323730  -5.722870  -3.160520  -5.534400   8.612090   0.000000   0.000000  -0.000000
 -8.551440  88.758600   3.364120  -6.838240 -16.744100 -10.670600   1.673780   9.745290  -0.833046   3.572820  19.460200  -2.003940   0.498771   1.237400  -0.010681   0.820907   2.508130  32.057800  -5.481260  -3.359940   2.555700 -75.569200  -4.604040  -8.767090   6.176490 -33.884300 -39.279500  87.114700 -84.911200  73.302000  39.090200  17.314100 -54.665700 -17.014000  -0.002829  -0.000318  -3.507010   0.002319  -0.004725 -19.036400   0.430273  -1.247250 -15.579100   0.000797  -0.008198 -10.905300   0.006750  -0.002671 -20.041900  -3.785480  10.254800 -20.381800   0.001888  -0.008331 -13.574400   0.001136   0.005417 -17.953100  -3.412780  10.385700 -18.264100   0.002416  -0.002111 -12.163900   0.006748  -0.004810 -21.781100  -4.107130  10.135200 -33.219600   0.003293  -0.002771 -22.124300   0.011990   0.002044   8.704020  -1.131590   8.924770  69.909000 -13.797400  10.024000 -10.963900 -33.638700  28.085000  10.973600 -81.105700  21.758600 -43.597600  25.746900  60.042400  -0.808501  -0.003876  -0.000056  -5.404250  -0.001243   0.005827  14.355800   2.250680   8.721230  11.886200   0.000400   0.003094   8.320350   0.005174  -0.004282  18.872300  -0.426734  -1.247640  18.877000   0.002198  -0.001055  12.572100   0.001507  -0.002674  19.735900  -2.921420  -8.093130  19.942400   0.003466   0.000950  13.281700   0.001993  -0.002980  28.032800  -4.063680  -7.586450  42.453300   0.004605  -0.002725  28.273800   0.003192   0.000000   7.689670  19.210700   2.756450   3.103350   8.826380   9.147330  -7.004310  -8.692920   2.634690   0.000000   0.000000  -0.000000   9.602160  20.856600  -6.848270   1.252170   1.310940  -5.734320  -3.162100  -5.536760   8.505470  -0.000000   0.000000   0.000000
 -8.555090  88.755500   3.355960  -6.793140 -16.747800 -10.561600   1.653830   9.727520  -0.809944   3.527320  19.425800  -1.952410   0.444324   1.235950  -0.010167   0.731158   2.506640  30.330100  -5.509300  -3.353150   2.565970 -75.552300  -4.736520  -8.689420   6.174540 -33.834100 -39.265600  87.057100 -84.913000  73.258000  39.072900  17.333100 -54.720400 -17.027000  -0.002859  -0.000326  -3.513500   0.002305  -0.004780 -19.055000   0.428548  -1.240280 -15.594400   0.000798  -0.008267 -10.916100   0.006780  -0.002707 -20.077200  -3.788050  10.245900 -20.416900   0.001886  -0.008500 -13.597700   0.001119   0.005422 -17.979500  -3.413170  10.377500 -18.290100   0.002398  -0.002119 -12.181200   0.006964  -0.004809 -21.795200  -4.107870  10.127800 -33.240600   0.003293  -0.002824 -22.138200   0.012036   0.002030   8.716390  -1.120470   8.924160  69.915200 -13.874800   9.942240 -10.966500 -33.750700  28.059400  11.130700 -81.102200  21.870500 -43.587200  25.680900  59.946600  -0.763492  -0.003899  -0.000113  -5.381740  -0.001262   0.005895  14.352400   2.251890   8.730400  11.883500   0.000362   0.003120   8.318470   0.005214  -0.004276  18.889700  -0.423734  -1.238120  18.894300   0.002182  -0.001025  12.583600   0.001487  -0.002674  19.733600  -2.908030  -8.049960  19.938300   0.003443   0.001006  13.278900   0.002001  -0.002979  28.022000  -4.043060  -7.546590  42.433300   0.004627  -0.002761  28.260500   0.003204  -0.000000   7.688170  19.140200   2.735970   3.113340   8.902860   9.084450  -7.018770  -8.708820   2.610540   0.000000   0.000000   0.000000   9.600180  20.846300  -6.840200   1.258290   1.303480  -5.739990  -3.164010  -5.538700   8.404730  -0.000000   0.000000   0.000000
